<svg id="Layer_1" data-name="Layer 1" xmlns="http://www.w3.org/2000/svg" xmlns:xlink="http://www.w3.org/1999/xlink" viewBox="0 0 24 24"><defs><style>.cls-1{fill:none;}.cls-2{clip-path:url(#clip-path);}</style><clipPath id="clip-path"><rect class="cls-1" x="-0.02" y="-0.05" width="24" height="24"/></clipPath></defs><title>address-book</title><g class="cls-2"><path d="M11,13.06a3.28,3.28,0,1,1,3.28-3.28A3.28,3.28,0,0,1,11,13.06ZM11,7.5a2.28,2.28,0,1,0,2.28,2.28A2.28,2.28,0,0,0,11,7.5Z"/><path d="M16,17.5a.5.5,0,0,1-.5-.5,4,4,0,0,0-3.94-3.94H10.44A4,4,0,0,0,6.5,17a.5.5,0,0,1-1,0,4.94,4.94,0,0,1,4.94-4.94h1.12A4.94,4.94,0,0,1,16.5,17,.5.5,0,0,1,16,17.5Z"/><path d="M16.6,20.5H5.4a2.9,2.9,0,0,1-2.9-2.9V6.4A2.9,2.9,0,0,1,5.4,3.5H16.6a2.9,2.9,0,0,1,2.9,2.9V17.6A2.9,2.9,0,0,1,16.6,20.5ZM5.4,4.5A1.9,1.9,0,0,0,3.5,6.4V17.6a1.9,1.9,0,0,0,1.9,1.9H16.6a1.9,1.9,0,0,0,1.9-1.9V6.4a1.9,1.9,0,0,0-1.9-1.9Z"/><path d="M21,10.28H19a.5.5,0,0,1-.5-.5.5.5,0,0,1,.5-.5h2a.5.5,0,0,1,.5.5A.5.5,0,0,1,21,10.28Z"/><path d="M21,15.5H19a.5.5,0,0,1,0-1h2a.5.5,0,0,1,0,1Z"/></g></svg>