<svg id="Layer_1" data-name="Layer 1" xmlns="http://www.w3.org/2000/svg" xmlns:xlink="http://www.w3.org/1999/xlink" viewBox="0 0 24 24"><defs><style>.cls-1{fill:none;}.cls-2{clip-path:url(#clip-path);}</style><clipPath id="clip-path"><rect class="cls-1" width="24" height="24"/></clipPath></defs><title>attachment</title><g class="cls-2"><path d="M12,21.05a5.25,5.25,0,0,1-4.14-1.67C6,17.22,6.36,13.79,6.38,13.65V6.87C6.37,5.52,7,3,9.44,3S12.5,5.52,12.5,6.87v6.84a.5.5,0,0,1-1,0V6.87c0-.12,0-2.92-2.06-2.92S7.37,6.75,7.37,6.87v6.84c0,.09-.37,3.19,1.24,5A4.31,4.31,0,0,0,12,20.05a4.31,4.31,0,0,0,3.39-1.33c1.61-1.82,1.25-4.92,1.24-4.95V3.45a.5.5,0,0,1,.5-.5.51.51,0,0,1,.5.5V13.71c0,.08.42,3.51-1.49,5.67A5.25,5.25,0,0,1,12,21.05Z"/></g></svg>