<svg id="Layer_1" data-name="Layer 1" xmlns="http://www.w3.org/2000/svg" xmlns:xlink="http://www.w3.org/1999/xlink" viewBox="0 0 24 24"><defs><style>.cls-1{fill:none;}.cls-2{clip-path:url(#clip-path);}</style><clipPath id="clip-path"><rect class="cls-1" y="0.03" width="24" height="24"/></clipPath></defs><title>bank</title><g class="cls-2"><path d="M21.46,21H2.54a.5.5,0,1,1,0-1H21.46a.5.5,0,0,1,0,1Z"/><path d="M19.58,21a.5.5,0,0,1-.5-.5V18.17H4.92v2.34a.5.5,0,0,1-.5.5.5.5,0,0,1-.5-.5V17.67a.5.5,0,0,1,.5-.5H19.58a.5.5,0,0,1,.5.5v2.84A.5.5,0,0,1,19.58,21Z"/><path d="M7.27,15.34a.51.51,0,0,1-.5-.5V9.16a.51.51,0,0,1,.5-.5.5.5,0,0,1,.5.5v5.68A.5.5,0,0,1,7.27,15.34Z"/><path d="M12,15.34a.5.5,0,0,1-.5-.5V7.27a.5.5,0,0,1,1,0v7.57A.5.5,0,0,1,12,15.34Z"/><path d="M16.73,15.34a.5.5,0,0,1-.5-.5V9.16a.5.5,0,0,1,.5-.5.51.51,0,0,1,.5.5v5.68A.51.51,0,0,1,16.73,15.34Z"/><path d="M3,8.72a.49.49,0,0,1-.45-.28.5.5,0,0,1,.22-.67L12.25,3a.52.52,0,0,1,.47,0l8.51,4.73a.5.5,0,0,1,.19.68.49.49,0,0,1-.68.19l-8.28-4.6L3.24,8.66A.46.46,0,0,1,3,8.72Z"/></g></svg>