<svg id="Layer_1" data-name="Layer 1" xmlns="http://www.w3.org/2000/svg" xmlns:xlink="http://www.w3.org/1999/xlink" viewBox="0 0 24 24"><defs><style>.cls-1{fill:none;}.cls-2{clip-path:url(#clip-path);}</style><clipPath id="clip-path"><rect class="cls-1" x="-0.02" width="24" height="24"/></clipPath></defs><title>briefcase</title><g class="cls-2"><path d="M17.27,20.94H6.73A4.24,4.24,0,0,1,2.5,16.71V12.48A4.24,4.24,0,0,1,6.73,8.25H17.27a4.24,4.24,0,0,1,4.23,4.23v4.23A4.24,4.24,0,0,1,17.27,20.94ZM6.73,9.25A3.23,3.23,0,0,0,3.5,12.48v4.23a3.23,3.23,0,0,0,3.23,3.23H17.27a3.23,3.23,0,0,0,3.23-3.23V12.48a3.23,3.23,0,0,0-3.23-3.23Z"/><path d="M12,16.39h-.06l-9-1.13a.5.5,0,0,1-.44-.56.51.51,0,0,1,.56-.43L12,15.39l8.94-1.12a.51.51,0,0,1,.56.43.5.5,0,0,1-.44.56l-9,1.13Z"/><path d="M15.94,8.61a.5.5,0,0,1-.5-.5c0-2.23-1.54-4-3.44-4S8.56,5.88,8.56,8.11a.5.5,0,0,1-.5.5.51.51,0,0,1-.5-.5c0-2.78,2-5,4.44-5s4.44,2.27,4.44,5A.51.51,0,0,1,15.94,8.61Z"/></g></svg>