<svg id="Layer_1" data-name="Layer 1" xmlns="http://www.w3.org/2000/svg" xmlns:xlink="http://www.w3.org/1999/xlink" viewBox="0 0 24 24"><defs><style>.cls-1{fill:none;}.cls-2{clip-path:url(#clip-path);}</style><clipPath id="clip-path"><rect class="cls-1" width="24" height="24"/></clipPath></defs><title>calculator</title><g class="cls-2"><path d="M16.79,22H7.21a3.77,3.77,0,0,1-3.76-3.76V5.79A3.77,3.77,0,0,1,7.21,2h9.58a3.77,3.77,0,0,1,3.76,3.76V18.21A3.77,3.77,0,0,1,16.79,22ZM7.21,3A2.77,2.77,0,0,0,4.45,5.79V18.21A2.77,2.77,0,0,0,7.21,21h9.58a2.77,2.77,0,0,0,2.76-2.76V5.79A2.77,2.77,0,0,0,16.79,3Z"/><path d="M16.73,11.55H7.27a.5.5,0,0,1-.5-.5V5.37a.5.5,0,0,1,.5-.5h9.46a.5.5,0,0,1,.5.5v5.68A.5.5,0,0,1,16.73,11.55Zm-9-1h8.46V5.87H7.77Z"/><rect x="13.89" y="12.95" width="2.84" height="5.68" rx="0.81"/><path d="M9.7,13.29V15c0,.2-.31.35-.69.35H8c-.38,0-.69-.15-.69-.35V13.29c0-.19.31-.34.69-.34H9C9.39,13,9.7,13.1,9.7,13.29Z"/><path d="M9.7,16.54v1.74c0,.19-.31.35-.69.35H8c-.38,0-.69-.16-.69-.35V16.54c0-.19.31-.35.69-.35H9C9.39,16.19,9.7,16.35,9.7,16.54Z"/><path d="M13,16.54v1.74c0,.19-.31.35-.7.35h-1c-.39,0-.7-.16-.7-.35V16.54c0-.19.31-.35.7-.35h1C12.64,16.19,13,16.35,13,16.54Z"/><path d="M13,13.29V15c0,.2-.31.35-.7.35h-1c-.39,0-.7-.15-.7-.35V13.29c0-.19.31-.34.7-.34h1C12.64,13,13,13.1,13,13.29Z"/></g></svg>