<svg id="Layer_1" data-name="Layer 1" xmlns="http://www.w3.org/2000/svg" xmlns:xlink="http://www.w3.org/1999/xlink" viewBox="0 0 24 24"><defs><style>.cls-1{fill:none;}.cls-2{clip-path:url(#clip-path);}</style><clipPath id="clip-path"><rect class="cls-1" x="-0.02" width="24" height="24"/></clipPath></defs><title>calendar</title><g class="cls-2"><path d="M6,21.76a3.5,3.5,0,0,1-3.5-3.49l0-9A3.5,3.5,0,0,1,6,5.76H7a.5.5,0,0,1,.5.5.5.5,0,0,1-.5.5H6a2.43,2.43,0,0,0-1.76.74,2.49,2.49,0,0,0-.73,1.77l0,9A2.49,2.49,0,0,0,6,20.76H6l12,0A2.47,2.47,0,0,0,19.78,20a2.51,2.51,0,0,0,.73-1.77l0-9A2.51,2.51,0,0,0,18,6.73H17a.5.5,0,1,1,0-1h1a3.51,3.51,0,0,1,3.5,3.49l0,9A3.5,3.5,0,0,1,18,21.73l-12,0Z"/><path d="M10,6.75a.5.5,0,0,1,0-1h4a.5.5,0,0,1,.5.5.5.5,0,0,1-.5.5Z"/><path d="M8.48,8.26a2,2,0,0,1-2-2v-2a2,2,0,0,1,2-2h0a2,2,0,0,1,2,2v2A2,2,0,0,1,9.9,7.67a2.07,2.07,0,0,1-1.41.59h0Zm0-5h0a1,1,0,0,0-1,1v2a1,1,0,0,0,.3.7.83.83,0,0,0,.7.3h0a1,1,0,0,0,1-1v-2A1,1,0,0,0,8.48,3.26Z"/><path d="M15.48,8.24a2,2,0,0,1-2-2v-2a2,2,0,0,1,2-2h0a2,2,0,0,1,2,2v2a2,2,0,0,1-2,2Zm0-1v0a1,1,0,0,0,1-1v-2a1,1,0,0,0-1-1h0a1,1,0,0,0-1,1v2a1,1,0,0,0,1,1Z"/><path d="M3,11.77a.5.5,0,0,1,0-1l18,0h0a.5.5,0,0,1,.5.5.49.49,0,0,1-.49.5l-18,0Z"/></g></svg>