<svg id="Layer_1" data-name="Layer 1" xmlns="http://www.w3.org/2000/svg" xmlns:xlink="http://www.w3.org/1999/xlink" viewBox="0 0 24 24"><defs><style>.cls-1{fill:none;}.cls-2{clip-path:url(#clip-path);}</style><clipPath id="clip-path"><rect class="cls-1" y="0.05" width="24" height="24"/></clipPath></defs><title>card-swipe</title><g class="cls-2"><path d="M9.17,20a2.47,2.47,0,0,1-1.77-.74L3,14.84A2.52,2.52,0,0,1,3,11.3l9.24-9.24a2.51,2.51,0,0,1,3.54,0l4.41,4.42a2.5,2.5,0,0,1,0,3.53l-9.24,9.24A2.46,2.46,0,0,1,9.17,20ZM14,2.33a1.51,1.51,0,0,0-1.06.44L3.7,12a1.49,1.49,0,0,0,0,2.12l4.41,4.42a1.55,1.55,0,0,0,2.12,0L19.47,9.3h0a1.46,1.46,0,0,0,.44-1.06,1.47,1.47,0,0,0-.44-1.06L15.06,2.77A1.51,1.51,0,0,0,14,2.33Z"/><path d="M14,11.23a1.13,1.13,0,0,1-.81-.33L11.6,9.31a1.16,1.16,0,0,1,0-1.62L13.29,6A1.17,1.17,0,0,1,14.9,6l1.6,1.6a1.15,1.15,0,0,1,0,1.61L14.81,10.9A1.13,1.13,0,0,1,14,11.23Zm.1-4.55a.15.15,0,0,0-.1,0L12.31,8.4a.13.13,0,0,0,0,.2l1.59,1.59a.12.12,0,0,0,.2,0L15.79,8.5h0a.14.14,0,0,0,0-.1.19.19,0,0,0,0-.1L14.2,6.71A.19.19,0,0,0,14.1,6.68Z"/><path d="M21,20.5H2a.5.5,0,0,1,0-1H21a.5.5,0,0,1,0,1Z"/><path d="M7,13.5a.47.47,0,0,1-.35-.15.48.48,0,0,1,0-.7l2-2a.49.49,0,0,1,.7.7l-2,2A.47.47,0,0,1,7,13.5Z"/><path d="M9,15.5a.47.47,0,0,1-.35-.15.48.48,0,0,1,0-.7l2-2a.49.49,0,0,1,.7.7l-2,2A.47.47,0,0,1,9,15.5Z"/></g></svg>