<svg id="Layer_1" data-name="Layer 1" xmlns="http://www.w3.org/2000/svg" xmlns:xlink="http://www.w3.org/1999/xlink" viewBox="0 0 24 24"><defs><style>.cls-1{fill:none;}.cls-2{clip-path:url(#clip-path);}</style><clipPath id="clip-path"><rect class="cls-1" x="-0.02" width="24" height="24"/></clipPath></defs><title>cash-bag</title><g class="cls-2"><path d="M19,21H5a.5.5,0,0,1-.5-.5V14.56A6.56,6.56,0,0,1,11.06,8h1.88a6.56,6.56,0,0,1,6.56,6.56V20.5A.5.5,0,0,1,19,21ZM5.5,20h13V14.56A5.57,5.57,0,0,0,12.94,9H11.06A5.57,5.57,0,0,0,5.5,14.56Z"/><path d="M14,9.1a.48.48,0,0,1-.3-.11.5.5,0,0,1-.09-.7L17,4H7l3.35,4.29a.5.5,0,0,1-.09.7.5.5,0,0,1-.7-.08l-4-5.1a.51.51,0,0,1-.06-.53A.5.5,0,0,1,6,3H18a.5.5,0,0,1,.45.28.51.51,0,0,1-.06.53l-4,5.1A.53.53,0,0,1,14,9.1Z"/></g></svg>