<svg id="Layer_1" data-name="Layer 1" xmlns="http://www.w3.org/2000/svg" xmlns:xlink="http://www.w3.org/1999/xlink" viewBox="0 0 24 24"><defs><style>.cls-1{fill:none;}.cls-2{clip-path:url(#clip-path);}</style><clipPath id="clip-path"><rect class="cls-1" width="24" height="24"/></clipPath></defs><title>chair</title><g class="cls-2"><path d="M18.33,14.08a.5.5,0,0,1-.5-.5V8.31a5.83,5.83,0,1,0-11.66,0v5.27a.5.5,0,0,1-.5.5.5.5,0,0,1-.5-.5V8.31a6.83,6.83,0,0,1,13.66,0v5.27A.5.5,0,0,1,18.33,14.08Z"/><path d="M21.49,14.08h-19a.5.5,0,0,1-.5-.5V10.42a.5.5,0,0,1,1,0v2.66H21V10.42a.5.5,0,1,1,1,0v3.16A.5.5,0,0,1,21.49,14.08Z"/><path d="M12,22.52a.5.5,0,0,1-.5-.5V13.58a.5.5,0,1,1,1,0V22A.5.5,0,0,1,12,22.52Z"/><path d="M7.78,22.52a.51.51,0,0,1-.5-.5A4.55,4.55,0,0,1,12,17.3a.5.5,0,0,1,0,1A3.61,3.61,0,0,0,8.28,22,.5.5,0,0,1,7.78,22.52Z"/><path d="M16.22,22.52a.5.5,0,0,1-.5-.5A3.62,3.62,0,0,0,12,18.3a.5.5,0,0,1,0-1A4.55,4.55,0,0,1,16.72,22a.51.51,0,0,1-.5.5Z"/></g></svg>