<svg id="Layer_1" data-name="Layer 1" xmlns="http://www.w3.org/2000/svg" xmlns:xlink="http://www.w3.org/1999/xlink" viewBox="0 0 24 24"><defs><style>.cls-1{fill:none;}.cls-2{clip-path:url(#clip-path);}</style><clipPath id="clip-path"><rect class="cls-1" x="-0.01" width="24" height="24"/></clipPath></defs><title>coffee-mug</title><g class="cls-2"><path d="M12,20.5H6A3.5,3.5,0,0,1,2.5,17V7A3.5,3.5,0,0,1,6,3.5h6A3.5,3.5,0,0,1,15.5,7V17A3.5,3.5,0,0,1,12,20.5ZM6,4.5A2.5,2.5,0,0,0,3.5,7V17A2.5,2.5,0,0,0,6,19.5h6A2.5,2.5,0,0,0,14.5,17V7A2.5,2.5,0,0,0,12,4.5Z"/><path d="M17,16.5H15a.5.5,0,0,1,0-1h2a3.5,3.5,0,0,0,0-7H15a.5.5,0,0,1,0-1h2a4.5,4.5,0,0,1,0,9Z"/><path d="M9,11.5a.5.5,0,0,1-.5-.5V4a.5.5,0,0,1,1,0v7A.5.5,0,0,1,9,11.5Z"/><path d="M9,15.5A2.5,2.5,0,1,1,11.5,13,2.5,2.5,0,0,1,9,15.5Zm0-4A1.5,1.5,0,1,0,10.5,13,1.5,1.5,0,0,0,9,11.5Z"/></g></svg>