<svg id="Layer_1" data-name="Layer 1" xmlns="http://www.w3.org/2000/svg" xmlns:xlink="http://www.w3.org/1999/xlink" viewBox="0 0 24 24"><defs><style>.cls-1{fill:none;}.cls-2{clip-path:url(#clip-path);}</style><clipPath id="clip-path"><rect class="cls-1" x="0.01" y="-0.05" width="24" height="24"/></clipPath></defs><title>copier</title><g class="cls-2"><path d="M19.58,20.48H4.42a2.31,2.31,0,0,1-2.3-2.31V9.58a2.3,2.3,0,0,1,2.3-2.3H19.58a2.3,2.3,0,0,1,2.3,2.3v8.59A2.31,2.31,0,0,1,19.58,20.48ZM4.42,8.28a1.3,1.3,0,0,0-1.3,1.3v8.59a1.31,1.31,0,0,0,1.3,1.31H19.58a1.31,1.31,0,0,0,1.3-1.31V9.58a1.3,1.3,0,0,0-1.3-1.3Z"/><path d="M2.62,10.15a.5.5,0,0,1-.5-.5V5a.5.5,0,0,1,.5-.5h7.5a.49.49,0,0,1,.38.18l2.41,2.81a.51.51,0,0,1-.06.71.49.49,0,0,1-.7-.06L9.89,5.46H3.12V9.65A.5.5,0,0,1,2.62,10.15Z"/><path d="M11.06,6.56a.5.5,0,0,1-.1-1l10.33-2a.5.5,0,0,1,.58.4.48.48,0,0,1-.39.58l-10.32,2Z"/><path d="M21.38,16.72H10.12a.5.5,0,0,1-.5-.5V12.47a.55.55,0,0,1,.15-.36.5.5,0,0,1,.35-.14h0L21.39,12a.5.5,0,0,1,0,1h0L10.62,13v2.75H21.38a.5.5,0,0,1,.5.5A.5.5,0,0,1,21.38,16.72Z"/></g></svg>