<svg id="Layer_1" data-name="Layer 1" xmlns="http://www.w3.org/2000/svg" xmlns:xlink="http://www.w3.org/1999/xlink" viewBox="0 0 24 24"><defs><style>.cls-1{fill:none;}.cls-2{clip-path:url(#clip-path);}</style><clipPath id="clip-path"><rect class="cls-1" x="-0.01" y="-0.05" width="24" height="24"/></clipPath></defs><title>dashboard</title><g class="cls-2"><path d="M20.81,18.5l-.15,0a.51.51,0,0,1-.33-.63,8.63,8.63,0,0,0,.4-2.62,8.73,8.73,0,0,0-17.46,0,8.63,8.63,0,0,0,.4,2.62.51.51,0,0,1-.33.63.5.5,0,0,1-.62-.33,9.58,9.58,0,0,1-.45-2.92,9.73,9.73,0,0,1,19.46,0,9.58,9.58,0,0,1-.45,2.92A.49.49,0,0,1,20.81,18.5Z"/><path d="M20.81,18.5H3.19a.5.5,0,0,1,0-1H20.81a.5.5,0,1,1,0,1Z"/><path d="M12,15.73a.47.47,0,0,1-.35-.15.48.48,0,0,1,0-.7l3.69-3.7a.5.5,0,0,1,.71.71l-3.7,3.69A.47.47,0,0,1,12,15.73Z"/></g></svg>