<svg id="Layer_1" data-name="Layer 1" xmlns="http://www.w3.org/2000/svg" xmlns:xlink="http://www.w3.org/1999/xlink" viewBox="0 0 24 24"><defs><style>.cls-1{fill:none;}.cls-2{clip-path:url(#clip-path);}</style><clipPath id="clip-path"><rect class="cls-1" width="24" height="24"/></clipPath></defs><title>documents</title><g class="cls-2"><path d="M17,20.5H7A3.5,3.5,0,0,1,3.5,17V11A3.5,3.5,0,0,1,7,7.5H17A3.5,3.5,0,0,1,20.5,11v6A3.5,3.5,0,0,1,17,20.5ZM7,8.5A2.5,2.5,0,0,0,4.5,11v6A2.5,2.5,0,0,0,7,19.5H17A2.5,2.5,0,0,0,19.5,17V11A2.5,2.5,0,0,0,17,8.5Z"/><path d="M4,12.5a.5.5,0,0,1-.5-.5V4A.5.5,0,0,1,4,3.5H9a.54.54,0,0,1,.22,0l8,4a.5.5,0,0,1-.44.9L8.88,4.5H4.5V12A.5.5,0,0,1,4,12.5Z"/></g></svg>