<svg id="Layer_1" data-name="Layer 1" xmlns="http://www.w3.org/2000/svg" xmlns:xlink="http://www.w3.org/1999/xlink" viewBox="0 0 24 24"><defs><style>.cls-1{fill:none;}.cls-2{clip-path:url(#clip-path);}</style><clipPath id="clip-path"><rect class="cls-1" y="-0.05" width="24" height="24"/></clipPath></defs><title>envelope</title><g class="cls-2"><path d="M18,18.5H6A3.5,3.5,0,0,1,2.5,15V7A3.5,3.5,0,0,1,6,3.5H18A3.5,3.5,0,0,1,21.5,7v8A3.5,3.5,0,0,1,18,18.5ZM6,4.5A2.5,2.5,0,0,0,3.5,7v8A2.5,2.5,0,0,0,6,17.5H18A2.5,2.5,0,0,0,20.5,15V7A2.5,2.5,0,0,0,18,4.5Z"/><path d="M12,13.58l-.16,0-9-3.09a.5.5,0,0,1,.32-.94l8.84,3,8.85-2.87a.51.51,0,0,1,.63.32.5.5,0,0,1-.33.63l-9,2.92A.39.39,0,0,1,12,13.58Z"/><path d="M3.92,17.66a.47.47,0,0,1-.35-.15.48.48,0,0,1,0-.7l5.08-5.09a.5.5,0,0,1,.71.71L4.27,17.51A.47.47,0,0,1,3.92,17.66Z"/><path d="M20.08,17.66a.47.47,0,0,1-.35-.15l-5.07-5.06a.5.5,0,0,1,.71-.71l5.06,5.07a.5.5,0,0,1-.35.85Z"/></g></svg>