<svg id="Layer_1" data-name="Layer 1" xmlns="http://www.w3.org/2000/svg" xmlns:xlink="http://www.w3.org/1999/xlink" viewBox="0 0 24 24"><defs><style>.cls-1{fill:none;}.cls-2{clip-path:url(#clip-path);}</style><clipPath id="clip-path"><rect class="cls-1" width="24" height="24"/></clipPath></defs><title>files</title><g class="cls-2"><path d="M10.08,22H2.89a.5.5,0,0,1-.5-.5V2.53a.5.5,0,0,1,.5-.5h7.19a.5.5,0,0,1,.5.5V21.47A.5.5,0,0,1,10.08,22ZM3.39,21H9.58V3H3.39Z"/><path d="M21.11,22H13.92a.5.5,0,0,1-.5-.5V2.53a.5.5,0,0,1,.5-.5h7.19a.5.5,0,0,1,.5.5V21.47A.5.5,0,0,1,21.11,22Zm-6.69-1h6.19V3H14.42Z"/><path d="M9.93,6.66H3a.5.5,0,1,1,0-1h7a.5.5,0,1,1,0,1Z"/><path d="M20.78,12.74H14.15a.51.51,0,0,1-.5-.5.5.5,0,0,1,.5-.5h6.63a.5.5,0,0,1,.5.5A.5.5,0,0,1,20.78,12.74Z"/><path d="M6.49,17.23a.64.64,0,0,1-.2,0,.91.91,0,0,1-.16-.11A.54.54,0,0,1,6,16.73a.5.5,0,0,1,.14-.35.57.57,0,0,1,.16-.11.53.53,0,0,1,.55.11.5.5,0,0,1,.14.35.54.54,0,0,1-.14.36A.5.5,0,0,1,6.49,17.23Z"/><path d="M17.52,17.23a.52.52,0,0,1-.36-.14.54.54,0,0,1-.14-.36.5.5,0,0,1,.14-.35.51.51,0,0,1,.71,0,.5.5,0,0,1,.14.35.54.54,0,0,1-.14.36A.52.52,0,0,1,17.52,17.23Z"/></g></svg>