<svg id="Layer_1" data-name="Layer 1" xmlns="http://www.w3.org/2000/svg" xmlns:xlink="http://www.w3.org/1999/xlink" viewBox="0 0 24 24"><defs><style>.cls-1{fill:none;}.cls-2{clip-path:url(#clip-path);}</style><clipPath id="clip-path"><rect class="cls-1" x="-0.02" width="24" height="24"/></clipPath></defs><title>file-folder</title><g class="cls-2"><path d="M7,7a.51.51,0,0,1-.5-.5V5.4a3,3,0,0,1,3-3h5a.5.5,0,1,1,0,1h-5a2,2,0,0,0-2,2V6.53A.5.5,0,0,1,7,7Z"/><path d="M17.9,16.58a.51.51,0,0,1-.5-.5V7a.5.5,0,0,1,.5-.5.5.5,0,0,1,.5.5v9.08A.5.5,0,0,1,17.9,16.58Z"/><path d="M17.14,8.42H14.47A1.35,1.35,0,0,1,13.2,7V3.79a1.35,1.35,0,0,1,1.27-1.41.46.46,0,0,1,.38.18l3.44,4.12a.55.55,0,0,1,.12.32A1.35,1.35,0,0,1,17.14,8.42ZM14.31,3.47a.51.51,0,0,0-.11.32V7c0,.24.14.42.27.42h2.67c.1,0,.2-.1.24-.26Z"/><path d="M19.3,21.62H4.7a.5.5,0,0,1-.5-.5V6.53A.5.5,0,0,1,4.7,6H8.35a.5.5,0,0,1,.35.14l11,11a.47.47,0,0,1,.15.35v3.65A.5.5,0,0,1,19.3,21.62Zm-14.1-1H18.8V17.68L8.14,7H5.2Z"/></g></svg>