<svg id="Layer_1" data-name="Layer 1" xmlns="http://www.w3.org/2000/svg" xmlns:xlink="http://www.w3.org/1999/xlink" viewBox="0 0 24 24"><defs><style>.cls-1{fill:none;}.cls-2{clip-path:url(#clip-path);}</style><clipPath id="clip-path"><rect class="cls-1" x="-0.02" y="0.05" width="24" height="24"/></clipPath></defs><title>file-cabinet</title><g class="cls-2"><path d="M21,12.5H3a.5.5,0,0,1-.5-.5V3A.5.5,0,0,1,3,2.5H21a.5.5,0,0,1,.5.5v9A.5.5,0,0,1,21,12.5Zm-17.5-1h17v-8H3.5Z"/><path d="M21,21.5H3a.5.5,0,0,1-.5-.5V12a.5.5,0,0,1,.5-.5H21a.5.5,0,0,1,.5.5v9A.5.5,0,0,1,21,21.5Zm-17.5-1h17v-8H3.5Z"/><path d="M16.5,6.88H7.64a.5.5,0,0,1-.5-.5V3a.5.5,0,0,1,1,0V5.88H16V3a.5.5,0,0,1,1,0V6.38A.5.5,0,0,1,16.5,6.88Z"/><path d="M16.5,15.88H7.64a.5.5,0,0,1-.5-.5V12a.5.5,0,0,1,1,0v2.88H16V12a.5.5,0,0,1,1,0v3.38A.5.5,0,0,1,16.5,15.88Z"/></g></svg>