<svg id="Layer_1" data-name="Layer 1" xmlns="http://www.w3.org/2000/svg" xmlns:xlink="http://www.w3.org/1999/xlink" viewBox="0 0 24 24"><defs><style>.cls-1{fill:none;}.cls-2{clip-path:url(#clip-path);}</style><clipPath id="clip-path"><rect class="cls-1" width="24" height="24"/></clipPath></defs><title>flag</title><g class="cls-2"><path d="M20.14,22.07H3.86a.5.5,0,0,1-.5-.5.51.51,0,0,1,.5-.5H20.14a.51.51,0,0,1,.5.5A.5.5,0,0,1,20.14,22.07Z"/><path d="M6.73,22.07a.5.5,0,0,1-.5-.5V2.43A.5.5,0,0,1,6.47,2,.5.5,0,0,1,7,2L18.45,7.72a.51.51,0,0,1,0,.9L7.23,14.22v7.35A.5.5,0,0,1,6.73,22.07Zm.5-18.84v9.88l9.88-4.94Z"/></g></svg>