<svg id="Layer_1" data-name="Layer 1" xmlns="http://www.w3.org/2000/svg" xmlns:xlink="http://www.w3.org/1999/xlink" viewBox="0 0 24 24"><defs><style>.cls-1{fill:none;}.cls-2{clip-path:url(#clip-path);}</style><clipPath id="clip-path"><rect class="cls-1" width="24" height="24"/></clipPath></defs><title>headphones</title><g class="cls-2"><path d="M7.64,20.35a2.25,2.25,0,0,1-2.25-2.24V14.62a2.25,2.25,0,1,1,4.49,0v3.49A2.24,2.24,0,0,1,7.64,20.35Zm0-7a1.25,1.25,0,0,0-1.25,1.25v3.49a1.25,1.25,0,0,0,2.49,0V14.62A1.25,1.25,0,0,0,7.64,13.37Z"/><path d="M16.36,20.35a2.24,2.24,0,0,1-2.24-2.24V14.62a2.25,2.25,0,1,1,4.49,0v3.49A2.25,2.25,0,0,1,16.36,20.35Zm0-7a1.25,1.25,0,0,0-1.24,1.25v3.49a1.25,1.25,0,0,0,2.49,0V14.62A1.25,1.25,0,0,0,16.36,13.37Z"/><path d="M20.72,16.86a.5.5,0,0,1-.5-.5V12.87a8.22,8.22,0,0,0-16.44,0v3.49a.5.5,0,0,1-.5.5.5.5,0,0,1-.5-.5V12.87a9.22,9.22,0,0,1,18.44,0v3.49A.5.5,0,0,1,20.72,16.86Z"/></g></svg>