<svg id="Layer_1" data-name="Layer 1" xmlns="http://www.w3.org/2000/svg" xmlns:xlink="http://www.w3.org/1999/xlink" viewBox="0 0 24 24"><defs><style>.cls-1{fill:none;}.cls-2{clip-path:url(#clip-path);}</style><clipPath id="clip-path"><rect class="cls-1" x="0.01" y="0.05" width="24" height="24"/></clipPath></defs><title>lamp</title><g class="cls-2"><path d="M19.06,22.38H4a.5.5,0,0,1-.5-.5.5.5,0,0,1,.5-.5H19.06a.5.5,0,0,1,.5.5A.5.5,0,0,1,19.06,22.38Z"/><path d="M11.53,22.38a.46.46,0,0,1-.35-.14L3.64,14.71a.51.51,0,0,1,0-.71l6.59-6.59a.5.5,0,1,1,.71.71L4.71,14.35l7.17,7.18a.5.5,0,0,1,0,.71A.46.46,0,0,1,11.53,22.38Z"/><path d="M14.35,11.09a3.8,3.8,0,0,1,0-7.59.5.5,0,0,1,.5.5v6.59A.5.5,0,0,1,14.35,11.09Zm-.5-6.55a2.8,2.8,0,0,0,0,5.5Z"/><path d="M20,13l-.16,0L14.2,11.06a.49.49,0,0,1-.32-.63.51.51,0,0,1,.63-.32l5,1.67v-9l-5,1.66a.5.5,0,1,1-.31-.95l5.64-1.88a.51.51,0,0,1,.45.07.49.49,0,0,1,.21.41V12.47a.52.52,0,0,1-.21.41A.48.48,0,0,1,20,13Z"/></g></svg>