<svg id="Layer_1" data-name="Layer 1" xmlns="http://www.w3.org/2000/svg" xmlns:xlink="http://www.w3.org/1999/xlink" viewBox="0 0 24 24"><defs><style>.cls-1{fill:none;}.cls-2{clip-path:url(#clip-path);}</style><clipPath id="clip-path"><rect class="cls-1" y="0.05" width="24" height="24"/></clipPath></defs><title>letter-envelope</title><g class="cls-2"><path d="M19.34,21.68H4.66a.5.5,0,0,1-.5-.5V2.82a.5.5,0,0,1,.5-.5H19.34a.5.5,0,0,1,.5.5V21.18A.5.5,0,0,1,19.34,21.68Zm-14.18-1H18.84V3.32H5.16Z"/><path d="M12,8.83H7.41A.51.51,0,0,1,7,8.55L4.21,3.05a.5.5,0,0,1,0-.49.52.52,0,0,1,.43-.24H12a.5.5,0,0,1,.5.5.5.5,0,0,1-.5.5H5.47L7.72,7.83H12a.5.5,0,0,1,0,1Z"/><path d="M16.59,8.83H12a.5.5,0,0,1,0-1h4.28l2.25-4.51H12a.5.5,0,0,1-.5-.5.5.5,0,0,1,.5-.5h7.34a.52.52,0,0,1,.43.24.5.5,0,0,1,0,.49L17,8.55A.51.51,0,0,1,16.59,8.83Z"/><path d="M19.34,21.68H12a.5.5,0,0,1-.5-.5.5.5,0,0,1,.5-.5h6.53l-2.25-4.51H12a.5.5,0,0,1,0-1h4.59a.51.51,0,0,1,.45.28L19.79,21a.5.5,0,0,1,0,.49A.52.52,0,0,1,19.34,21.68Z"/><path d="M12,21.68H4.66a.52.52,0,0,1-.43-.24.5.5,0,0,1,0-.49L7,15.45a.51.51,0,0,1,.45-.28H11.5V12a.5.5,0,0,1,1,0v3.67a.5.5,0,0,1-.5.5H7.72L5.47,20.68H12a.5.5,0,0,1,.5.5A.5.5,0,0,1,12,21.68Z"/></g></svg>