<svg id="Layer_1" data-name="Layer 1" xmlns="http://www.w3.org/2000/svg" xmlns:xlink="http://www.w3.org/1999/xlink" viewBox="0 0 24 24"><defs><style>.cls-1{fill:none;}.cls-2{clip-path:url(#clip-path);}</style><clipPath id="clip-path"><rect class="cls-1" x="-0.01" width="24" height="24"/></clipPath></defs><title>map</title><g class="cls-2"><path d="M3.47,21.72a.5.5,0,0,1-.24-.06A.49.49,0,0,1,3,21.22V6.47a.48.48,0,0,1,.23-.42L8.88,2.36a.49.49,0,0,1,.51,0,.48.48,0,0,1,.27.44V17.53a.5.5,0,0,1-.23.42L3.74,21.64A.45.45,0,0,1,3.47,21.72Zm.5-15V20.3l4.69-3V3.7Z"/><path d="M14.84,21.72a.46.46,0,0,1-.23-.06.48.48,0,0,1-.27-.44V6.47a.5.5,0,0,1,.23-.42l5.69-3.69a.49.49,0,0,1,.51,0,.49.49,0,0,1,.26.44V17.53a.48.48,0,0,1-.23.42l-5.68,3.69A.48.48,0,0,1,14.84,21.72Zm.5-15V20.3l4.69-3V3.7Z"/><path d="M14.84,21.72a.45.45,0,0,1-.27-.08L8.88,18a.5.5,0,0,1-.14-.69.51.51,0,0,1,.69-.15l4.91,3.19V6.75L8.88,3.2a.51.51,0,0,1-.14-.7.5.5,0,0,1,.69-.14l5.69,3.7a.5.5,0,0,1,.22.42V21.22a.49.49,0,0,1-.26.44A.48.48,0,0,1,14.84,21.72Z"/></g></svg>