<svg id="Layer_1" data-name="Layer 1" xmlns="http://www.w3.org/2000/svg" xmlns:xlink="http://www.w3.org/1999/xlink" viewBox="0 0 24 24"><defs><style>.cls-1{fill:none;}.cls-2{clip-path:url(#clip-path);}</style><clipPath id="clip-path"><rect class="cls-1" width="24" height="24"/></clipPath></defs><title>marketing</title><g class="cls-2"><path d="M21.33,17.63h-.1L2.57,13.89a.5.5,0,0,1-.4-.49V9.67a.5.5,0,0,1,.4-.49L21.23,5.45a.49.49,0,0,1,.41.1.51.51,0,0,1,.19.39V17.13a.5.5,0,0,1-.5.5ZM3.17,13l17.66,3.53v-10L3.17,10.08Z"/><path d="M2.67,15.76a.5.5,0,0,1-.5-.5V7.8a.51.51,0,0,1,.5-.5.5.5,0,0,1,.5.5v7.46A.5.5,0,0,1,2.67,15.76Z"/><path d="M9.67,18.56A3.77,3.77,0,0,1,5.9,14.8,3.55,3.55,0,0,1,6,14a.49.49,0,0,1,.6-.37.5.5,0,0,1,.38.6,2.09,2.09,0,0,0-.06.53,2.77,2.77,0,0,0,5.48.54A.49.49,0,0,1,13,15a.51.51,0,0,1,.39.59A3.77,3.77,0,0,1,9.67,18.56Z"/><path d="M17.52,16.7a.5.5,0,0,1-.5-.5V6.7a.5.5,0,0,1,.5-.5.5.5,0,0,1,.5.5v9.5A.51.51,0,0,1,17.52,16.7Z"/></g></svg>