<svg id="Layer_1" data-name="Layer 1" xmlns="http://www.w3.org/2000/svg" xmlns:xlink="http://www.w3.org/1999/xlink" viewBox="0 0 24 24"><defs><style>.cls-1{fill:none;}.cls-2{clip-path:url(#clip-path);}</style><clipPath id="clip-path"><rect class="cls-1" y="-0.05" width="24" height="24"/></clipPath></defs><title>microhone</title><g class="cls-2"><path d="M12,16.79A4.76,4.76,0,0,1,7.25,12V6.47a4.75,4.75,0,1,1,9.5,0V12A4.76,4.76,0,0,1,12,16.79ZM12,2.71A3.76,3.76,0,0,0,8.25,6.47V12a3.75,3.75,0,1,0,7.5,0V6.47A3.76,3.76,0,0,0,12,2.71Z"/><path d="M16.25,22.29H7.75a.5.5,0,0,1-.5-.5.5.5,0,0,1,.5-.5H11.5v-5a.5.5,0,0,1,1,0v5h3.75a.5.5,0,0,1,.5.5A.5.5,0,0,1,16.25,22.29Z"/><path d="M16.25,8.1H13.3a.5.5,0,0,1-.5-.5.5.5,0,0,1,.5-.5h2.95a.5.5,0,0,1,.5.5A.5.5,0,0,1,16.25,8.1Z"/><path d="M16.25,11.86H13.3a.5.5,0,0,1-.5-.5.5.5,0,0,1,.5-.5h2.95a.5.5,0,0,1,.5.5A.5.5,0,0,1,16.25,11.86Z"/></g></svg>