<svg id="Layer_1" data-name="Layer 1" xmlns="http://www.w3.org/2000/svg" xmlns:xlink="http://www.w3.org/1999/xlink" viewBox="0 0 24 24"><defs><style>.cls-1{fill:none;}.cls-2{clip-path:url(#clip-path);}</style><clipPath id="clip-path"><rect class="cls-1" width="24" height="24"/></clipPath></defs><title>navigation</title><g class="cls-2"><path d="M18.27,21.54a1.68,1.68,0,0,1-1.19-.5l-4.59-4.59a.71.71,0,0,0-1,0L6.92,21a1.7,1.7,0,0,1-2.77-1.83L10.43,3.52a1.69,1.69,0,0,1,3.14,0l6.28,15.69a1.71,1.71,0,0,1-1.58,2.33ZM12,3.46a.67.67,0,0,0-.64.43L5.08,19.58a.67.67,0,0,0,.26.84.66.66,0,0,0,.87-.09h0l4.59-4.59a1.7,1.7,0,0,1,2.4,0l4.59,4.59a.66.66,0,0,0,.87.09.67.67,0,0,0,.26-.84L12.64,3.89A.67.67,0,0,0,12,3.46Z"/></g></svg>