<svg id="Layer_1" data-name="Layer 1" xmlns="http://www.w3.org/2000/svg" xmlns:xlink="http://www.w3.org/1999/xlink" viewBox="0 0 24 24"><defs><style>.cls-1{fill:none;}.cls-2{clip-path:url(#clip-path);}</style><clipPath id="clip-path"><rect class="cls-1" width="24" height="24"/></clipPath></defs><title>notepad</title><g class="cls-2"><path d="M17.5,22H6.5A3.5,3.5,0,0,1,3,18.5V7.5A3.5,3.5,0,0,1,6.5,4h11A3.5,3.5,0,0,1,21,7.5v11A3.5,3.5,0,0,1,17.5,22ZM6.5,5A2.5,2.5,0,0,0,4,7.5v11A2.5,2.5,0,0,0,6.5,21h11A2.5,2.5,0,0,0,20,18.5V7.5A2.5,2.5,0,0,0,17.5,5Z"/><path d="M8,7a.5.5,0,0,1-.5-.5v-4a.5.5,0,0,1,1,0v4A.5.5,0,0,1,8,7Z"/><path d="M12,7a.5.5,0,0,1-.5-.5v-4a.5.5,0,0,1,1,0v4A.5.5,0,0,1,12,7Z"/><path d="M16,7a.5.5,0,0,1-.5-.5v-4a.5.5,0,0,1,1,0v4A.5.5,0,0,1,16,7Z"/></g></svg>