<svg id="Layer_1" data-name="Layer 1" xmlns="http://www.w3.org/2000/svg" xmlns:xlink="http://www.w3.org/1999/xlink" viewBox="0 0 24 24"><defs><style>.cls-1{fill:none;}.cls-2{clip-path:url(#clip-path);}</style><clipPath id="clip-path"><rect class="cls-1" y="0.09" width="24" height="24"/></clipPath></defs><title>oective</title><g class="cls-2"><path d="M12,15A2.95,2.95,0,1,1,15,12,2.95,2.95,0,0,1,12,15Zm0-4.9A1.95,1.95,0,1,0,14,12,1.95,1.95,0,0,0,12,10.05Z"/><path d="M12,18.23A6.23,6.23,0,1,1,18.23,12,6.24,6.24,0,0,1,12,18.23ZM12,6.77A5.23,5.23,0,1,0,17.23,12,5.24,5.24,0,0,0,12,6.77Z"/><path d="M12,21.5A9.5,9.5,0,1,1,21.5,12,9.51,9.51,0,0,1,12,21.5Zm0-18A8.5,8.5,0,1,0,20.5,12,8.51,8.51,0,0,0,12,3.5Z"/></g></svg>