<svg id="Layer_1" data-name="Layer 1" xmlns="http://www.w3.org/2000/svg" xmlns:xlink="http://www.w3.org/1999/xlink" viewBox="0 0 24 24"><defs><style>.cls-1{fill:none;}.cls-2{clip-path:url(#clip-path);}</style><clipPath id="clip-path"><rect class="cls-1" width="24" height="24"/></clipPath></defs><title>pen-holder</title><g class="cls-2"><path d="M15.05,21.48H9A2.15,2.15,0,0,1,6.8,19.33v-7A2.15,2.15,0,0,1,9,10.22h6.1a2.15,2.15,0,0,1,2.15,2.15v7A2.15,2.15,0,0,1,15.05,21.48ZM9,11.22A1.14,1.14,0,0,0,7.8,12.37v7A1.15,1.15,0,0,0,9,20.48h6.1a1.15,1.15,0,0,0,1.15-1.15v-7a1.14,1.14,0,0,0-1.15-1.15Z"/><path d="M9.76,11.22a.5.5,0,0,1-.49-.37l-1.6-6A.5.5,0,0,1,8,4.25a.52.52,0,0,1,.62.35l1.6,6a.5.5,0,0,1-.35.61Z"/><path d="M13.23,11.22h-.11a.51.51,0,0,1-.38-.6l1.76-7.7a.5.5,0,0,1,1,.22l-1.76,7.7A.51.51,0,0,1,13.23,11.22Z"/><path d="M16.7,17.89H10.89a.5.5,0,0,1-.5-.5v-3.6a.5.5,0,0,1,.5-.5H16.7a.5.5,0,0,1,.5.5.5.5,0,0,1-.5.5H11.39v2.6H16.7a.5.5,0,0,1,.5.5A.5.5,0,0,1,16.7,17.89Z"/></g></svg>