<svg id="Layer_1" data-name="Layer 1" xmlns="http://www.w3.org/2000/svg" xmlns:xlink="http://www.w3.org/1999/xlink" viewBox="0 0 24 24"><defs><style>.cls-1{fill:none;}.cls-2{clip-path:url(#clip-path);}</style><clipPath id="clip-path"><rect class="cls-1" x="-0.04" y="-0.05" width="24" height="24"/></clipPath></defs><title>phone</title><g class="cls-2"><path d="M14.45,21.58H9.55a3.5,3.5,0,0,1-3.5-3.5V5.92a3.5,3.5,0,0,1,3.5-3.5h4.9A3.5,3.5,0,0,1,18,5.92V18.08A3.5,3.5,0,0,1,14.45,21.58ZM9.55,3.42a2.5,2.5,0,0,0-2.5,2.5V18.08a2.5,2.5,0,0,0,2.5,2.5h4.9a2.5,2.5,0,0,0,2.5-2.5V5.92a2.5,2.5,0,0,0-2.5-2.5Z"/><path d="M12,18.85a.58.58,0,0,1-.19,0,.64.64,0,0,1-.16-.11.49.49,0,0,1-.15-.36.47.47,0,0,1,.15-.35.49.49,0,0,1,.54-.11.64.64,0,0,1,.16.11.47.47,0,0,1,.15.35.49.49,0,0,1-.15.36A.5.5,0,0,1,12,18.85Z"/></g></svg>