<svg id="Layer_1" data-name="Layer 1" xmlns="http://www.w3.org/2000/svg" xmlns:xlink="http://www.w3.org/1999/xlink" viewBox="0 0 24 24"><defs><style>.cls-1{fill:none;}.cls-2{clip-path:url(#clip-path);}</style><clipPath id="clip-path"><rect class="cls-1" x="-0.02" width="24" height="24"/></clipPath></defs><title>plant</title><g class="cls-2"><path d="M10.89,11.51a.48.48,0,0,1-.37-.17A.47.47,0,0,1,10.4,11c0-.09,1.21-9,9.06-9a.49.49,0,0,1,.49.43A8.89,8.89,0,0,1,18,8.83C16.47,10.61,14.07,11.51,10.89,11.51ZM19,3c-5.56.29-7.13,5.72-7.5,7.54a7.79,7.79,0,0,0,5.8-2.33A7.78,7.78,0,0,0,19,3Z"/><path d="M10.89,11.5h-.06c-.07,0-6.82-.92-6.82-6.88a.5.5,0,0,1,.44-.49,6.72,6.72,0,0,1,4.9,1.45,6.88,6.88,0,0,1,2,5.43.48.48,0,0,1-.17.37A.51.51,0,0,1,10.89,11.5ZM5,5.09c.28,3.8,3.9,5,5.35,5.3A5.66,5.66,0,0,0,8.7,6.33,5.6,5.6,0,0,0,5.05,5.09Z"/><path d="M10.89,15.68a.5.5,0,0,1-.5-.5V11a.5.5,0,1,1,1,0v4.17A.5.5,0,0,1,10.89,15.68Z"/><path d="M13.55,22.05H8.63a3.5,3.5,0,0,1-3.5-3.5V15.18a.5.5,0,0,1,.5-.5H16.55a.5.5,0,0,1,.5.5v3.37A3.5,3.5,0,0,1,13.55,22.05ZM6.13,15.68v2.87a2.5,2.5,0,0,0,2.5,2.5h4.92a2.5,2.5,0,0,0,2.5-2.5V15.68Z"/></g></svg>