<svg id="Layer_1" data-name="Layer 1" xmlns="http://www.w3.org/2000/svg" xmlns:xlink="http://www.w3.org/1999/xlink" viewBox="0 0 24 24"><defs><style>.cls-1{fill:none;}.cls-2{clip-path:url(#clip-path);}</style><clipPath id="clip-path"><rect class="cls-1" x="0.07" width="24" height="24"/></clipPath></defs><title>poster</title><g class="cls-2"><path d="M2.43,21.62l-.13,0a.5.5,0,0,1-.36-.6L6.5,2.76A.49.49,0,0,1,7,2.38h11a.51.51,0,0,1,.49.6L14.77,21.22a.5.5,0,1,1-1-.2L17.32,3.38H7.38L2.91,21.24A.5.5,0,0,1,2.43,21.62Z"/><path d="M3.34,18a.5.5,0,0,1-.5-.5.5.5,0,0,1,.5-.5l11.67,0h0a.5.5,0,0,1,.5.5.49.49,0,0,1-.49.5L3.34,18Z"/><path d="M21.57,21.62a.5.5,0,0,1-.48-.37l-2.73-10a.5.5,0,0,1,1-.26l2.74,10a.5.5,0,0,1-.35.61Z"/><path d="M10.63,21.62a.52.52,0,0,1-.47-.33L8.8,17.65A.5.5,0,0,1,9.09,17a.5.5,0,0,1,.64.29l1.37,3.65a.5.5,0,0,1-.29.65A.57.57,0,0,1,10.63,21.62Z"/><path d="M13.82,8.85H8.35a.5.5,0,0,1-.5-.5.51.51,0,0,1,.5-.5h5.47a.5.5,0,0,1,.5.5A.5.5,0,0,1,13.82,8.85Z"/><path d="M12.91,12.5H7.44a.5.5,0,0,1,0-1h5.47a.5.5,0,0,1,0,1Z"/></g></svg>