<svg id="Layer_1" data-name="Layer 1" xmlns="http://www.w3.org/2000/svg" xmlns:xlink="http://www.w3.org/1999/xlink" viewBox="0 0 24 24"><defs><style>.cls-1{fill:none;}.cls-2{clip-path:url(#clip-path);}</style><clipPath id="clip-path"><rect class="cls-1" width="24" height="24"/></clipPath></defs><title>projector</title><g class="cls-2"><path d="M19.32,15.84H4.68A2.73,2.73,0,0,1,2,13.11V8A2.74,2.74,0,0,1,4.68,5.29H19.32A2.74,2.74,0,0,1,22.05,8v5.08A2.73,2.73,0,0,1,19.32,15.84ZM4.68,6.29A1.74,1.74,0,0,0,3,8v5.08a1.74,1.74,0,0,0,1.73,1.73H19.32a1.74,1.74,0,0,0,1.73-1.73V8a1.74,1.74,0,0,0-1.73-1.74Z"/><path d="M16.78,13a2.41,2.41,0,1,1,2.41-2.41A2.41,2.41,0,0,1,16.78,13Zm0-3.82a1.41,1.41,0,1,0,1.41,1.41A1.41,1.41,0,0,0,16.78,9.16Z"/><path d="M12,11.07H5.31a.51.51,0,0,1-.5-.5.5.5,0,0,1,.5-.5H12a.5.5,0,0,1,.5.5A.5.5,0,0,1,12,11.07Z"/><path d="M6.54,18.71a.5.5,0,0,1-.5-.5V15.34a.5.5,0,0,1,.5-.5.51.51,0,0,1,.5.5v2.87A.5.5,0,0,1,6.54,18.71Z"/><path d="M17.46,18.71a.5.5,0,0,1-.5-.5V15.34a.51.51,0,0,1,.5-.5.5.5,0,0,1,.5.5v2.87A.5.5,0,0,1,17.46,18.71Z"/></g></svg>