<svg id="Layer_1" data-name="Layer 1" xmlns="http://www.w3.org/2000/svg" xmlns:xlink="http://www.w3.org/1999/xlink" viewBox="0 0 24 24"><defs><style>.cls-1{fill:none;}.cls-2{clip-path:url(#clip-path);}</style><clipPath id="clip-path"><rect class="cls-1" y="0.05" width="24" height="24"/></clipPath></defs><title>receipt</title><g class="cls-2"><path d="M19.63,22a.54.54,0,0,1-.36-.14l-3.46-3.46-3.46,3.46a.5.5,0,0,1-.7,0L8.19,18.43,4.73,21.89a.53.53,0,0,1-.55.11.5.5,0,0,1-.31-.47V2.47A.5.5,0,0,1,4.18,2a.53.53,0,0,1,.55.11L8.19,5.57l3.46-3.46a.5.5,0,0,1,.7,0l3.46,3.46,3.46-3.46A.51.51,0,0,1,19.82,2a.5.5,0,0,1,.31.47V21.53a.5.5,0,0,1-.31.47A.63.63,0,0,1,19.63,22ZM8.19,17.22a.47.47,0,0,1,.35.15L12,20.83l3.46-3.46a.51.51,0,0,1,.71,0l3,3V3.67l-3,3a.51.51,0,0,1-.71,0L12,3.17,8.54,6.63a.51.51,0,0,1-.71,0l-3-3V20.33l3-3A.49.49,0,0,1,8.19,17.22Z"/></g></svg>