<svg id="Layer_1" data-name="Layer 1" xmlns="http://www.w3.org/2000/svg" xmlns:xlink="http://www.w3.org/1999/xlink" viewBox="0 0 24 24"><defs><style>.cls-1{fill:none;}.cls-2{clip-path:url(#clip-path);}</style><clipPath id="clip-path"><rect class="cls-1" width="24" height="24"/></clipPath></defs><title>reception</title><g class="cls-2"><path d="M19.89,22H4.11A2.61,2.61,0,0,1,1.5,19.39V14.61A2.61,2.61,0,0,1,4.11,12H19.89a2.61,2.61,0,0,1,2.61,2.61v4.78A2.61,2.61,0,0,1,19.89,22ZM4.11,13A1.61,1.61,0,0,0,2.5,14.61v4.78A1.61,1.61,0,0,0,4.11,21H19.89a1.61,1.61,0,0,0,1.61-1.61V14.61A1.61,1.61,0,0,0,19.89,13Z"/><path d="M20,10H12a.5.5,0,0,1-.5-.5v-7A.5.5,0,0,1,12,2h8a.5.5,0,0,1,.5.5v7A.5.5,0,0,1,20,10ZM12.5,9h7V3h-7Z"/><path d="M16,13a.5.5,0,0,1-.5-.5v-6a.5.5,0,0,1,1,0v6A.5.5,0,0,1,16,13Z"/></g></svg>