<svg id="Layer_1" data-name="Layer 1" xmlns="http://www.w3.org/2000/svg" xmlns:xlink="http://www.w3.org/1999/xlink" viewBox="0 0 24 24"><defs><style>.cls-1{fill:none;}.cls-2{clip-path:url(#clip-path);}</style><clipPath id="clip-path"><rect class="cls-1" width="24" height="24"/></clipPath></defs><title>shelf</title><g class="cls-2"><path d="M20.15,19.74H3.85a.5.5,0,0,1-.5-.5V3a.5.5,0,0,1,.5-.5h16.3a.5.5,0,0,1,.5.5V19.24A.5.5,0,0,1,20.15,19.74Zm-15.8-1h15.3V3.45H4.35Z"/><path d="M12,19.74a.5.5,0,0,1-.5-.5V3a.5.5,0,1,1,1,0V19.24A.5.5,0,0,1,12,19.74Z"/><path d="M20.15,11.59H3.85a.5.5,0,0,1-.5-.5.5.5,0,0,1,.5-.5h16.3a.5.5,0,0,1,.5.5A.5.5,0,0,1,20.15,11.59Z"/><path d="M6.51,21.55a.5.5,0,0,1-.5-.5V19.24a.5.5,0,0,1,1,0v1.81A.5.5,0,0,1,6.51,21.55Z"/><path d="M17.49,21.55a.5.5,0,0,1-.5-.5V19.24a.5.5,0,0,1,1,0v1.81A.5.5,0,0,1,17.49,21.55Z"/><path d="M14.23,11.59a.5.5,0,0,1-.5-.5V5.66a.5.5,0,0,1,.5-.5.51.51,0,0,1,.5.5v5.43A.5.5,0,0,1,14.23,11.59Z"/><path d="M17.92,11.59a.48.48,0,0,1-.47-.35l-1.4-4.53A.5.5,0,1,1,17,6.42L18.4,11a.5.5,0,0,1-.33.62A.39.39,0,0,1,17.92,11.59Z"/><path d="M9.28,19.74a.5.5,0,0,1-.5-.5V13.81a.5.5,0,0,1,.5-.5.5.5,0,0,1,.5.5v5.43A.5.5,0,0,1,9.28,19.74Z"/><path d="M17.43,19.74H14.72a.5.5,0,0,1-.5-.5V14.72a.5.5,0,0,1,.5-.5h2.71a.5.5,0,0,1,.5.5v4.52A.5.5,0,0,1,17.43,19.74Zm-2.21-1h1.71V15.22H15.22Z"/></g></svg>