<svg id="Layer_1" data-name="Layer 1" xmlns="http://www.w3.org/2000/svg" xmlns:xlink="http://www.w3.org/1999/xlink" viewBox="0 0 24 24"><defs><style>.cls-1{fill:none;}.cls-2{clip-path:url(#clip-path);}</style><clipPath id="clip-path"><rect class="cls-1" y="0.05" width="24" height="24"/></clipPath></defs><title>sticky-note</title><g class="cls-2"><path d="M17.4,21.5H6.6a4.11,4.11,0,0,1-4.1-4.1V6.6A4.11,4.11,0,0,1,6.6,2.5H17.4a4.11,4.11,0,0,1,4.1,4.1V17.4A4.11,4.11,0,0,1,17.4,21.5ZM6.6,3.5A3.1,3.1,0,0,0,3.5,6.6V17.4a3.1,3.1,0,0,0,3.1,3.1H17.4a3.1,3.1,0,0,0,3.1-3.1V6.6a3.1,3.1,0,0,0-3.1-3.1Z"/><path d="M14.47,21.5A.51.51,0,0,1,14,21l0-3.33a2.54,2.54,0,0,1,2.54-2.58H21a.5.5,0,1,1,0,1H16.47a1.54,1.54,0,0,0-1.54,1.57L15,21a.49.49,0,0,1-.49.51Z"/></g></svg>