<svg id="Layer_1" data-name="Layer 1" xmlns="http://www.w3.org/2000/svg" xmlns:xlink="http://www.w3.org/1999/xlink" viewBox="0 0 24 24"><defs><style>.cls-1{fill:none;}.cls-2{clip-path:url(#clip-path);}</style><clipPath id="clip-path"><rect class="cls-1" x="-0.02" width="24" height="24"/></clipPath></defs><title>tie</title><g class="cls-2"><path d="M14.77,6.5H9.23a.5.5,0,0,1-.5-.5V2.3a.5.5,0,0,1,.5-.5h5.54a.5.5,0,0,1,.5.5V6A.5.5,0,0,1,14.77,6.5Zm-5-1h4.54V2.8H9.73Z"/><path d="M12,22.2a.51.51,0,0,1-.31-.11l-4.62-3.7a.49.49,0,0,1-.18-.46l1.85-12a.49.49,0,0,1,.49-.42h5.54a.49.49,0,0,1,.49.42l1.85,12a.49.49,0,0,1-.18.46l-4.62,3.7A.51.51,0,0,1,12,22.2ZM7.92,17.79,12,21.06l4.08-3.27L14.34,6.5H9.66Z"/><path d="M12,13.54H8.15a.5.5,0,0,1-.5-.5.5.5,0,0,1,.5-.5H12a.5.5,0,0,1,.5.5A.5.5,0,0,1,12,13.54Z"/></g></svg>