<svg id="Layer_1" data-name="Layer 1" xmlns="http://www.w3.org/2000/svg" xmlns:xlink="http://www.w3.org/1999/xlink" viewBox="0 0 24 24"><defs><style>.cls-1{fill:none;}.cls-2{clip-path:url(#clip-path);}</style><clipPath id="clip-path"><rect class="cls-1" width="24" height="24"/></clipPath></defs><title>vault</title><g class="cls-2"><path d="M20,22H4a.5.5,0,0,1,0-1H20a.5.5,0,0,1,0,1Z"/><path d="M18.69,22a.5.5,0,0,1-.5-.5V3H5.81V21.5a.5.5,0,0,1-.5.5.5.5,0,0,1-.5-.5V2.5a.5.5,0,0,1,.5-.5H18.69a.5.5,0,0,1,.5.5v19A.5.5,0,0,1,18.69,22Z"/><path d="M15,14H9a.5.5,0,0,1-.5-.5v-7A.5.5,0,0,1,9,6h6a.5.5,0,0,1,.5.5v7A.5.5,0,0,1,15,14ZM9.5,13h5V7h-5Z"/><path d="M15,10.5H9a.5.5,0,0,1,0-1h6a.5.5,0,0,1,0,1Z"/><path d="M12,19a1.5,1.5,0,1,1,1.5-1.5A1.5,1.5,0,0,1,12,19Zm0-2a.5.5,0,1,0,.5.5A.5.5,0,0,0,12,17Z"/></g></svg>