<svg id="Layer_1" data-name="Layer 1" xmlns="http://www.w3.org/2000/svg" xmlns:xlink="http://www.w3.org/1999/xlink" viewBox="0 0 24 24"><defs><style>.cls-1{fill:none;}.cls-2{clip-path:url(#clip-path);}</style><clipPath id="clip-path"><rect class="cls-1" y="0.05" width="24" height="24"/></clipPath></defs><title>wallet</title><g class="cls-2"><path d="M18,19H6a3.5,3.5,0,0,1-3.5-3.5v-7A3.5,3.5,0,0,1,6,5H18a3.5,3.5,0,0,1,3.5,3.5v7A3.5,3.5,0,0,1,18,19ZM6,6A2.5,2.5,0,0,0,3.5,8.5v7A2.5,2.5,0,0,0,6,18H18a2.5,2.5,0,0,0,2.5-2.5v-7A2.5,2.5,0,0,0,18,6Z"/><path d="M21,15.5H15.45a3,3,0,0,1-2.95-2.95v-1.1A3,3,0,0,1,15.45,8.5H21a.5.5,0,0,1,0,1H15.45a2,2,0,0,0-1.95,1.95v1.1a2,2,0,0,0,1.95,1.95H21a.5.5,0,0,1,0,1Z"/><path d="M17,12.5a.5.5,0,0,1-.35-.85.49.49,0,0,1,.54-.11.36.36,0,0,1,.16.11.48.48,0,0,1,0,.7.36.36,0,0,1-.16.11A.41.41,0,0,1,17,12.5Z"/></g></svg>