<svg id="Layer_1" data-name="Layer 1" xmlns="http://www.w3.org/2000/svg" xmlns:xlink="http://www.w3.org/1999/xlink" viewBox="0 0 24 24"><defs><style>.cls-1{fill:none;}.cls-2{clip-path:url(#clip-path);}</style><clipPath id="clip-path"><rect class="cls-1" x="-0.02" y="-0.05" width="24" height="24"/></clipPath></defs><title>webcam</title><g class="cls-2"><path d="M12,19a8.5,8.5,0,1,1,8.5-8.5A8.51,8.51,0,0,1,12,19ZM12,3a7.5,7.5,0,1,0,7.5,7.5A7.5,7.5,0,0,0,12,3Z"/><path d="M12,14a3.5,3.5,0,1,1,3.5-3.5A3.5,3.5,0,0,1,12,14Zm0-6a2.5,2.5,0,1,0,2.5,2.5A2.5,2.5,0,0,0,12,8Z"/><path d="M22,22H2a.51.51,0,0,1-.46-.3.51.51,0,0,1,.09-.54l4.63-5.07a.49.49,0,0,1,.7,0,.51.51,0,0,1,0,.71L3.13,21H20.92l-3.61-4.25a.5.5,0,1,1,.76-.65l4.31,5.08a.47.47,0,0,1,.07.53A.48.48,0,0,1,22,22Z"/></g></svg>